HIERARCHY
ROOT Hips
{
  OFFSET -4.953 40.613 -228.571
  CHANNELS 6 Xposition Yposition Zposition Zrotation Xrotation Yrotation
  JOINT LeftUpLeg
  {
    OFFSET 7.572 -5.366 4.674
    CHANNELS 6 Xposition Yposition Zposition Zrotation Xrotation Yrotation
    JOINT LeftLeg
    {
      OFFSET -0.000 -44.197 0.000
      CHANNELS 6 Xposition Yposition Zposition Zrotation Xrotation Yrotation
      JOINT LeftFoot
      {
        OFFSET -0.000 -38.405 -0.000
        CHANNELS 6 Xposition Yposition Zposition Zrotation Xrotation Yrotation
        End Site
        {
          OFFSET 0.000 -9.372 5.411
        }
      }
    }
  }
  JOINT RightUpLeg
  {
    OFFSET -7.484 -5.750 4.503
    CHANNELS 6 Xposition Yposition Zposition Zrotation Xrotation Yrotation
    JOINT RightLeg
    {
      OFFSET -0.000 -44.537 0.000
      CHANNELS 6 Xposition Yposition Zposition Zrotation Xrotation Yrotation
      JOINT RightFoot
      {
        OFFSET -0.000 -38.313 -0.000
        CHANNELS 6 Xposition Yposition Zposition Zrotation Xrotation Yrotation
        End Site
        {
          OFFSET 0.000 -8.904 5.141
        }
      }
    }
  }
  JOINT Spine
  {
    OFFSET 0.000 4.585 -4.585
    CHANNELS 6 Xposition Yposition Zposition Zrotation Xrotation Yrotation
    JOINT LeftShoulder
    {
      OFFSET -0.000 36.302 0.000
      CHANNELS 6 Xposition Yposition Zposition Zrotation Xrotation Yrotation
      JOINT LeftArm
      {
        OFFSET 19.408 0.000 -0.000
        CHANNELS 6 Xposition Yposition Zposition Zrotation Xrotation Yrotation
        JOINT LeftForeArm
        {
          OFFSET 24.971 0.000 0.000
          CHANNELS 6 Xposition Yposition Zposition Zrotation Xrotation Yrotation
          JOINT LeftHand
          {
            OFFSET 25.055 0.000 -0.000
            CHANNELS 6 Xposition Yposition Zposition Zrotation Xrotation Yrotation
            JOINT LeftHandThumb1
            {
            OFFSET 4.970 -0.620 3.390
            CHANNELS 6 Xposition Yposition Zposition Zrotation Xrotation Yrotation
              JOINT LeftHandThumb2
              {
              OFFSET 2.150 -0.000 0.000
              CHANNELS 6 Xposition Yposition Zposition Zrotation Xrotation Yrotation
                JOINT LeftHandThumb3
                {
                OFFSET 2.200 -0.000 0.000
                CHANNELS 6 Xposition Yposition Zposition Zrotation Xrotation Yrotation
                  JOINT LeftHandThumb4
                  {
                  OFFSET 1.700 -0.000 0.000
                  CHANNELS 6 Xposition Yposition Zposition Zrotation Xrotation Yrotation
                  }
                }
              }
            }
            JOINT LeftHandIndex1
            {
            OFFSET 8.730 0.680 2.070
            CHANNELS 6 Xposition Yposition Zposition Zrotation Xrotation Yrotation
              JOINT LeftHandIndex2
              {
              OFFSET 2.670 -0.000 0.000
              CHANNELS 6 Xposition Yposition Zposition Zrotation Xrotation Yrotation
                JOINT LeftHandIndex3
                {
                OFFSET 2.130 -0.000 0.000
                CHANNELS 6 Xposition Yposition Zposition Zrotation Xrotation Yrotation
                  JOINT LeftHandIndex4
                  {
                  OFFSET 1.800 -0.000 0.000
                  CHANNELS 6 Xposition Yposition Zposition Zrotation Xrotation Yrotation
                  }
                }
              }
            }
            JOINT LeftHandMiddle1
            {
            OFFSET 9.220 0.670 0.550
            CHANNELS 6 Xposition Yposition Zposition Zrotation Xrotation Yrotation
              JOINT LeftHandMiddle2
              {
              OFFSET 2.660 -0.000 0.000
              CHANNELS 6 Xposition Yposition Zposition Zrotation Xrotation Yrotation
                JOINT LeftHandMiddle3
                {
                OFFSET 2.280 -0.000 0.000
                CHANNELS 6 Xposition Yposition Zposition Zrotation Xrotation Yrotation
                  JOINT LeftHandMiddle4
                  {
                  OFFSET 1.500 -0.000 0.000
                  CHANNELS 6 Xposition Yposition Zposition Zrotation Xrotation Yrotation
                  }
                }
              }
            }
            JOINT LeftHandRing1
            {
            OFFSET 9.250 0.670 -1.130
            CHANNELS 6 Xposition Yposition Zposition Zrotation Xrotation Yrotation
              JOINT LeftHandRing2
              {
              OFFSET 2.470 -0.000 0.000
              CHANNELS 6 Xposition Yposition Zposition Zrotation Xrotation Yrotation
                JOINT LeftHandRing3
                {
                OFFSET 2.210 -0.000 0.000
                CHANNELS 6 Xposition Yposition Zposition Zrotation Xrotation Yrotation
                  JOINT LeftHandRing4
                  {
                  OFFSET 1.800 -0.000 0.000
                  CHANNELS 6 Xposition Yposition Zposition Zrotation Xrotation Yrotation
                  }
                }
              }
            }
            JOINT LeftHandPinky1
            {
            OFFSET 9.350 0.660 -2.720
            CHANNELS 6 Xposition Yposition Zposition Zrotation Xrotation Yrotation
              JOINT LeftHandPinky2
              {
              OFFSET 1.630 -0.000 0.000
              CHANNELS 6 Xposition Yposition Zposition Zrotation Xrotation Yrotation
                JOINT LeftHandPinky3
                {
                OFFSET 1.710 -0.000 0.000
                CHANNELS 6 Xposition Yposition Zposition Zrotation Xrotation Yrotation
                  JOINT LeftHandPinky4
                  {
                  OFFSET 1.800 -0.000 0.000
                  CHANNELS 6 Xposition Yposition Zposition Zrotation Xrotation Yrotation
                  }
                }
              }
            }
          }
        }
      }
    }
    JOINT RightShoulder
    {
      OFFSET -0.000 36.302 0.000
      CHANNELS 6 Xposition Yposition Zposition Zrotation Xrotation Yrotation
      JOINT RightArm
      {
        OFFSET -20.180 0.000 -0.000
        CHANNELS 6 Xposition Yposition Zposition Zrotation Xrotation Yrotation
        JOINT RightForeArm
        {
          OFFSET -25.433 0.000 0.000
          CHANNELS 6 Xposition Yposition Zposition Zrotation Xrotation Yrotation
          JOINT RightHand
          {
            OFFSET -25.830 0.000 -0.000
            CHANNELS 6 Xposition Yposition Zposition Zrotation Xrotation Yrotation
            JOINT RightHandThumb1
            {
            OFFSET -4.970 -0.620 3.390
            CHANNELS 6 Xposition Yposition Zposition Zrotation Xrotation Yrotation
              JOINT RightHandThumb2
              {
              OFFSET -2.150 0.000 0.000
              CHANNELS 6 Xposition Yposition Zposition Zrotation Xrotation Yrotation
                JOINT RightHandThumb3
                {
                OFFSET -2.200 0.000 0.000
                CHANNELS 6 Xposition Yposition Zposition Zrotation Xrotation Yrotation
                  JOINT RightHandThumb4
                  {
                  OFFSET -1.700 0.000 0.000
                  CHANNELS 6 Xposition Yposition Zposition Zrotation Xrotation Yrotation
                  }
                }
              }
            }
            JOINT RightHandIndex1
            {
            OFFSET -8.730 0.680 2.070
            CHANNELS 6 Xposition Yposition Zposition Zrotation Xrotation Yrotation
              JOINT RightHandIndex2
              {
              OFFSET -2.670 0.000 0.000
              CHANNELS 6 Xposition Yposition Zposition Zrotation Xrotation Yrotation
                JOINT RightHandIndex3
                {
                OFFSET -2.130 0.000 0.000
                CHANNELS 6 Xposition Yposition Zposition Zrotation Xrotation Yrotation
                  JOINT RightHandIndex4
                  {
                  OFFSET -1.800 0.000 0.000
                  CHANNELS 6 Xposition Yposition Zposition Zrotation Xrotation Yrotation
                  }
                }
              }
            }
            JOINT RightHandMiddle1
            {
            OFFSET -9.220 0.670 0.550
            CHANNELS 6 Xposition Yposition Zposition Zrotation Xrotation Yrotation
              JOINT RightHandMiddle2
              {
              OFFSET -2.660 0.000 0.000
              CHANNELS 6 Xposition Yposition Zposition Zrotation Xrotation Yrotation
                JOINT RightHandMiddle3
                {
                OFFSET -2.280 0.000 0.000
                CHANNELS 6 Xposition Yposition Zposition Zrotation Xrotation Yrotation
                  JOINT RightHandMiddle4
                  {
                  OFFSET -1.500 0.000 0.000
                  CHANNELS 6 Xposition Yposition Zposition Zrotation Xrotation Yrotation
                  }
                }
              }
            }
            JOINT RightHandRing1
            {
            OFFSET -9.250 0.670 -1.130
            CHANNELS 6 Xposition Yposition Zposition Zrotation Xrotation Yrotation
              JOINT RightHandRing2
              {
              OFFSET -2.470 0.000 0.000
              CHANNELS 6 Xposition Yposition Zposition Zrotation Xrotation Yrotation
                JOINT RightHandRing3
                {
                OFFSET -2.210 0.000 0.000
                CHANNELS 6 Xposition Yposition Zposition Zrotation Xrotation Yrotation
                  JOINT RightHandRing4
                  {
                  OFFSET -1.800 0.000 0.000
                  CHANNELS 6 Xposition Yposition Zposition Zrotation Xrotation Yrotation
                  }
                }
              }
            }
            JOINT RightHandPinky1
            {
            OFFSET -9.350 0.660 -2.720
            CHANNELS 6 Xposition Yposition Zposition Zrotation Xrotation Yrotation
              JOINT RightHandPinky2
              {
              OFFSET -1.630 0.000 0.000
              CHANNELS 6 Xposition Yposition Zposition Zrotation Xrotation Yrotation
                JOINT RightHandPinky3
                {
                OFFSET -1.710 0.000 0.000
                CHANNELS 6 Xposition Yposition Zposition Zrotation Xrotation Yrotation
                  JOINT RightHandPinky4
                  {
                  OFFSET -1.800 0.000 0.000
                  CHANNELS 6 Xposition Yposition Zposition Zrotation Xrotation Yrotation
                  }
                }
              }
            }
          }
        }
      }
    }
    JOINT Neck
    {
      OFFSET -0.000 36.302 0.000
      CHANNELS 6 Xposition Yposition Zposition Zrotation Xrotation Yrotation
      JOINT Head
      {
        OFFSET -0.000 12.755 0.000
        CHANNELS 6 Xposition Yposition Zposition Zrotation Xrotation Yrotation
        End Site
        {
          OFFSET -0.000 0.051 0.000
        }
      }
    }
  }
}
MOTION
Frames:	5
Frame Time:	0.0333333
-10.2243 41.6561 -239.106 2.43476 8.74907 -0.538606 7.89136 -7.53154 2.60389 3.62396 0.372957 -2.93634 -5.96046e-06 -46.8147 -7.15256e-05 -6.1233 1.76585 0.189411 2.98023e-06 -37.7852 4.76837e-05 6.83991 -17.2768 5.8257 -7.93482 -7.50092 1.80054 -4.00529 3.09189 -2.69855 -5.96046e-06 -47.5898 0 7.21196 -5.71792 0.722314 0 -37.6444 0 -3.65379 -6.60418 -2.54201 2.98023e-06 6.10658 -6.10657 -0.530161 -7.75625 0.287848 1.49012e-06 36.3015 0 -28.7723 1.19528e-05 -3.83715 19.9776 -2.98023e-05 0 -48.8652 20.5063 -0.808551 26.8206 2.38419e-05 4.76837e-05 4.85931e-06 -1.70755e-06 -25.3335 25.5132 5.96046e-06 -3.57628e-05 -4.12749 -0.00749295 1.39002 0.0062 0.0497 0.0339 0 0 0 0 0.0215 0 0 0 0 0 0.022 0 0 0 0 0 0.017 0 0 0 0 -0.0068 0.0873 0.0207 0 0 0 0 0.0267 0 0 0 0 0 0.0213 0 0 0 0 0 0.018 0 0 0 0 -0.0067 0.0922 0.0055 0 0 0 0 0.0266 0 0 0 0 0 0.0228 0 0 0 0 0 0.015 0 0 0 0 -0.0067 0.0925 -0.0113 0 0 0 0 0.0247 0 0 0 0 0 0.0221 0 0 0 0 0 0.018 0 0 0 0 -0.0066 0.0935 -0.0272 0 0 0 0 0.0163 0 0 0 0 0 0.0171 0 0 0 0 0 0.018 0 0 0 0 1.49012e-06 36.3015 0 30.7027 -3.36173e-06 3.82949 -20.0175 1.19209e-05 2.38419e-05 44.5628 36.452 -0.721698 -26.6193 -4.76837e-05 2.38419e-05 3.91634e-06 1.70755e-06 21.2265 -26.2582 3.57628e-05 1.19209e-05 4.13621 0.000853777 0.648611 -0.0062 0.0497 0.0339 0 0 0 0 0.0215 0 0 0 0 0 0.022 0 0 0 0 0 0.017 0 0 0 0 0.0068 0.0873 0.0207 0 0 0 0 0.0267 0 0 0 0 0 0.0213 0 0 0 0 0 0.018 0 0 0 0 0.0067 0.0922 0.0055 0 0 0 0 0.0266 0 0 0 0 0 0.0228 0 0 0 0 0 0.015 0 0 0 0 0.0067 0.0925 -0.0113 0 0 0 0 0.0247 0 0 0 0 0 0.0221 0 0 0 0 0 0.018 0 0 0 0 0.0066 0.0935 -0.0272 0 0 0 0 0.0163 0 0 0 0 0 0.0171 0 0 0 0 0 0.018 0 0 0 0 1.49012e-06 36.3015 0 -18.1459 24.4035 7.71141 2.9846e-06 18.923 0 9.8184e-06 -1.36604e-05 -8.53774e-07 
-10.2243 41.6561 -239.106 2.43476 8.74907 -0.538606 7.89136 -7.53154 2.60389 3.62396 0.372957 -2.93634 -5.96046e-06 -46.8147 -7.15256e-05 -6.1233 1.76585 0.189411 2.98023e-06 -37.7852 4.76837e-05 6.83991 -17.2768 5.8257 -7.93482 -7.50092 1.80054 -4.00529 3.09189 -2.69855 -5.96046e-06 -47.5898 0 7.21196 -5.71792 0.722314 0 -37.6444 0 -3.65379 -6.60418 -2.54201 2.98023e-06 6.10658 -6.10657 -0.530161 -7.75625 0.287848 1.49012e-06 36.3015 0 -28.7723 1.19528e-05 -3.83715 19.9776 -2.98023e-05 0 -48.8652 20.5063 -0.808551 26.8206 2.38419e-05 4.76837e-05 4.85931e-06 -1.70755e-06 -25.3335 25.5132 5.96046e-06 -3.57628e-05 -4.12749 -0.00749295 1.39002 0.0062 0.0497 0.0339 0 0 0 0 0.0215 0 0 0 0 0 0.022 0 0 0 0 0 0.017 0 0 0 0 -0.0068 0.0873 0.0207 0 0 0 0 0.0267 0 0 0 0 0 0.0213 0 0 0 0 0 0.018 0 0 0 0 -0.0067 0.0922 0.0055 0 0 0 0 0.0266 0 0 0 0 0 0.0228 0 0 0 0 0 0.015 0 0 0 0 -0.0067 0.0925 -0.0113 0 0 0 0 0.0247 0 0 0 0 0 0.0221 0 0 0 0 0 0.018 0 0 0 0 -0.0066 0.0935 -0.0272 0 0 0 0 0.0163 0 0 0 0 0 0.0171 0 0 0 0 0 0.018 0 0 0 0 1.49012e-06 36.3015 0 30.7027 -3.36173e-06 3.82949 -20.0175 1.19209e-05 2.38419e-05 44.5628 36.452 -0.721698 -26.6193 -4.76837e-05 2.38419e-05 3.91634e-06 1.70755e-06 21.2265 -26.2582 3.57628e-05 1.19209e-05 4.13621 0.000853777 0.648611 -0.0062 0.0497 0.0339 0 0 0 0 0.0215 0 0 0 0 0 0.022 0 0 0 0 0 0.017 0 0 0 0 0.0068 0.0873 0.0207 0 0 0 0 0.0267 0 0 0 0 0 0.0213 0 0 0 0 0 0.018 0 0 0 0 0.0067 0.0922 0.0055 0 0 0 0 0.0266 0 0 0 0 0 0.0228 0 0 0 0 0 0.015 0 0 0 0 0.0067 0.0925 -0.0113 0 0 0 0 0.0247 0 0 0 0 0 0.0221 0 0 0 0 0 0.018 0 0 0 0 0.0066 0.0935 -0.0272 0 0 0 0 0.0163 0 0 0 0 0 0.0171 0 0 0 0 0 0.018 0 0 0 0 1.49012e-06 36.3015 0 -18.1459 24.4035 7.71141 2.9846e-06 18.923 0 9.8184e-06 -1.36604e-05 -8.53774e-07 
-10.0618 41.6364 -238.919 2.09727 8.37824 -0.776727 7.89321 -7.53711 2.56376 3.89263 1.30599 -2.83386 0 -46.8268 7.15256e-05 -6.05705 1.05979 0.112449 7.45058e-07 -37.7549 -7.15256e-05 6.93436 -17.3595 5.91537 -7.90482 -7.50436 1.80864 -3.68985 3.48451 -2.51989 -2.98023e-06 -47.6885 7.15256e-05 7.00505 -5.52829 0.678199 -2.98023e-06 -37.5716 -2.38419e-05 -3.41289 -6.96406 -2.39507 2.23517e-06 6.10846 -6.10845 -0.493082 -7.63564 0.197755 -2.23517e-06 36.3015 2.38419e-05 -28.8238 1.12058e-05 -3.72246 20.0402 1.19209e-05 -2.38419e-05 -48.6847 19.877 -1.5053 26.6476 1.19209e-05 -2.38419e-05 4.60844e-06 1.70755e-06 -25.6509 25.2051 5.96046e-06 1.19209e-05 -4.57105 -0.00355062 1.24172 0.0062 0.0497 0.0339 0 0 0 0 0.0215 0 0 0 0 0 0.022 0 0 0 0 0 0.017 0 0 0 0 -0.0068 0.0873 0.0207 0 0 0 0 0.0267 0 0 0 0 0 0.0213 0 0 0 0 0 0.018 0 0 0 0 -0.0067 0.0922 0.0055 0 0 0 0 0.0266 0 0 0 0 0 0.0228 0 0 0 0 0 0.015 0 0 0 0 -0.0067 0.0925 -0.0113 0 0 0 0 0.0247 0 0 0 0 0 0.0221 0 0 0 0 0 0.018 0 0 0 0 -0.0066 0.0935 -0.0272 0 0 0 0 0.0163 0 0 0 0 0 0.0171 0 0 0 0 0 0.018 0 0 0 0 -2.23517e-06 36.3015 2.38419e-05 30.5467 -3.9487e-06 3.72883 -20.0059 -1.19209e-05 -4.76837e-05 44.8765 36.5575 -0.590544 -26.7721 0 4.76837e-05 1.30647e-05 1.70755e-06 21.042 -26.1815 -1.19209e-05 0 4.18253 0.000565201 0.612964 -0.0062 0.0497 0.0339 0 0 0 0 0.0215 0 0 0 0 0 0.022 0 0 0 0 0 0.017 0 0 0 0 0.0068 0.0873 0.0207 0 0 0 0 0.0267 0 0 0 0 0 0.0213 0 0 0 0 0 0.018 0 0 0 0 0.0067 0.0922 0.0055 0 0 0 0 0.0266 0 0 0 0 0 0.0228 0 0 0 0 0 0.015 0 0 0 0 0.0067 0.0925 -0.0113 0 0 0 0 0.0247 0 0 0 0 0 0.0221 0 0 0 0 0 0.018 0 0 0 0 0.0066 0.0935 -0.0272 0 0 0 0 0.0163 0 0 0 0 0 0.0171 0 0 0 0 0 0.018 0 0 0 0 -2.23517e-06 36.3015 2.38419e-05 -16.189 24.7458 6.9289 -4.28408e-06 18.8487 -2.38419e-05 4.9092e-06 -1.02453e-05 -1.28066e-06 
-9.94293 41.6227 -238.799 1.83928 8.14692 -0.937905 7.89488 -7.5357 2.53589 4.09489 1.88122 -2.77687 5.96046e-06 -46.8264 2.38419e-05 -6.01601 0.637548 0.0671872 -7.45058e-07 -37.7416 -4.76837e-05 6.99452 -17.4147 5.97281 -7.88721 -7.50901 1.80988 -3.44954 3.72202 -2.41518 -2.98023e-06 -47.7481 2.38419e-05 6.87061 -5.39328 0.648864 0 -37.5235 -7.15256e-05 -3.25681 -7.19425 -2.29823 0 6.11013 -6.11019 -0.485657 -7.56339 0.157429 -2.98023e-06 36.3015 -2.38419e-05 -28.8909 1.10457e-05 -3.66954 20.0395 -5.96046e-06 2.38419e-05 -48.1368 20.9172 -1.75477 26.0607 5.96046e-06 2.38419e-05 4.89583e-07 -6.83019e-06 -25.8155 25.4938 -1.19209e-05 -1.19209e-05 -4.86022 -0.000122961 1.10358 0.0062 0.0497 0.0339 0 0 0 0 0.0215 0 0 0 0 0 0.022 0 0 0 0 0 0.017 0 0 0 0 -0.0068 0.0873 0.0207 0 0 0 0 0.0267 0 0 0 0 0 0.0213 0 0 0 0 0 0.018 0 0 0 0 -0.0067 0.0922 0.0055 0 0 0 0 0.0266 0 0 0 0 0 0.0228 0 0 0 0 0 0.015 0 0 0 0 -0.0067 0.0925 -0.0113 0 0 0 0 0.0247 0 0 0 0 0 0.0221 0 0 0 0 0 0.018 0 0 0 0 -0.0066 0.0935 -0.0272 0 0 0 0 0.0163 0 0 0 0 0 0.0171 0 0 0 0 0 0.018 0 0 0 0 -2.98023e-06 36.3015 -2.38419e-05 30.4853 -3.7486e-06 3.67551 -20.0069 1.78814e-05 7.15256e-05 45.0117 36.9129 -0.547369 -26.8841 0 -2.38419e-05 1.43218e-07 -5.12264e-06 21.0648 -26.1338 0 -3.57628e-05 4.21455 0.000338096 0.583654 -0.0062 0.0497 0.0339 0 0 0 0 0.0215 0 0 0 0 0 0.022 0 0 0 0 0 0.017 0 0 0 0 0.0068 0.0873 0.0207 0 0 0 0 0.0267 0 0 0 0 0 0.0213 0 0 0 0 0 0.018 0 0 0 0 0.0067 0.0922 0.0055 0 0 0 0 0.0266 0 0 0 0 0 0.0228 0 0 0 0 0 0.015 0 0 0 0 0.0067 0.0925 -0.0113 0 0 0 0 0.0247 0 0 0 0 0 0.0221 0 0 0 0 0 0.018 0 0 0 0 0.0066 0.0935 -0.0272 0 0 0 0 0.0163 0 0 0 0 0 0.0171 0 0 0 0 0 0.018 0 0 0 0 -2.98023e-06 36.3015 -2.38419e-05 -14.7334 24.9788 6.33656 3.35276e-06 18.796 7.15256e-05 9.60495e-06 -1.02453e-05 0 
-9.68107 41.598 -238.576 1.26988 7.72464 -1.30591 7.89365 -7.52367 2.46518 4.54913 2.89491 -2.58667 -2.98023e-06 -46.798 4.76837e-05 -5.98318 -0.0599742 -0.00628442 0 -37.7447 0 7.12792 -17.4895 6.09549 -7.85061 -7.51865 1.81861 -2.94868 4.14432 -2.13675 5.96046e-06 -47.8509 2.38419e-05 6.66121 -5.14317 0.599826 0 -37.4452 -7.15256e-05 -2.96021 -7.44209 -2.10227 -4.47035e-06 6.11357 -6.11362 -0.453685 -7.42093 0.107207 -1.49012e-06 36.3015 2.38419e-05 -29.138 1.25932e-05 -3.57231 19.9571 5.96046e-06 -2.38419e-05 -47.178 22.4 -2.458 25.8551 -1.19209e-05 2.38419e-05 1.21453e-07 -1.70755e-06 -25.8482 25.4022 -1.19209e-05 -3.57628e-05 -5.34344 0.0044913 0.893976 0.0062 0.0497 0.0339 0 0 0 0 0.0215 0 0 0 0 0 0.022 0 0 0 0 0 0.017 0 0 0 0 -0.0068 0.0873 0.0207 0 0 0 0 0.0267 0 0 0 0 0 0.0213 0 0 0 0 0 0.018 0 0 0 0 -0.0067 0.0922 0.0055 0 0 0 0 0.0266 0 0 0 0 0 0.0228 0 0 0 0 0 0.015 0 0 0 0 -0.0067 0.0925 -0.0113 0 0 0 0 0.0247 0 0 0 0 0 0.0221 0 0 0 0 0 0.018 0 0 0 0 -0.0066 0.0935 -0.0272 0 0 0 0 0.0163 0 0 0 0 0 0.0171 0 0 0 0 0 0.018 0 0 0 0 -1.49012e-06 36.3015 2.38419e-05 30.326 -2.74808e-06 3.55679 -20.044 -1.19209e-05 -7.15256e-05 45.3247 37.2912 -0.403859 -27.0631 8.34465e-05 2.38419e-05 9.50915e-06 8.53774e-06 21.1971 -26.0131 -3.57628e-05 1.19209e-05 4.20525 0.000278331 0.592038 -0.0062 0.0497 0.0339 0 0 0 0 0.0215 0 0 0 0 0 0.022 0 0 0 0 0 0.017 0 0 0 0 0.0068 0.0873 0.0207 0 0 0 0 0.0267 0 0 0 0 0 0.0213 0 0 0 0 0 0.018 0 0 0 0 0.0067 0.0922 0.0055 0 0 0 0 0.0266 0 0 0 0 0 0.0228 0 0 0 0 0 0.015 0 0 0 0 0.0067 0.0925 -0.0113 0 0 0 0 0.0247 0 0 0 0 0 0.0221 0 0 0 0 0 0.018 0 0 0 0 0.0066 0.0935 -0.0272 0 0 0 0 0.0163 0 0 0 0 0 0.0171 0 0 0 0 0 0.018 0 0 0 0 -1.49012e-06 36.3015 2.38419e-05 -11.676 25.3775 5.06134 -7.45058e-07 18.699 2.38419e-05 1.34469e-05 -5.12264e-06 2.13443e-07 
